<svg width="33" height="33" viewBox="0 0 33 33" fill="none" xmlns="http://www.w3.org/2000/svg">
<path d="M3.40909 32.5V26.3909C2.56061 26.1 1.86364 25.5849 1.31818 24.8455C0.772727 24.1061 0.5 23.2636 0.5 22.3182V7.77273H3.40909V1.95455C3.40909 1.54242 3.54848 1.19697 3.82727 0.918182C4.10606 0.639394 4.45152 0.5 4.86364 0.5C5.27576 0.5 5.62121 0.639394 5.9 0.918182C6.17879 1.19697 6.31818 1.54242 6.31818 1.95455V7.77273H9.22727V22.3182C9.22727 23.2636 8.95455 24.1061 8.40909 24.8455C7.86364 25.5849 7.16667 26.1 6.31818 26.3909V32.5H3.40909ZM15.0455 32.5V26.3909C14.197 26.1 13.5 25.5849 12.9545 24.8455C12.4091 24.1061 12.1364 23.2636 12.1364 22.3182V7.77273H15.0455V1.95455C15.0455 1.54242 15.1848 1.19697 15.4636 0.918182C15.7424 0.639394 16.0879 0.5 16.5 0.5C16.9121 0.5 17.2576 0.639394 17.5364 0.918182C17.8152 1.19697 17.9545 1.54242 17.9545 1.95455V7.77273H20.8636V22.3182C20.8636 23.2636 20.5909 24.1061 20.0455 24.8455C19.5 25.5849 18.803 26.1 17.9545 26.3909V32.5H15.0455ZM26.6818 32.5V26.3909C25.8333 26.1 25.1364 25.5849 24.5909 24.8455C24.0455 24.1061 23.7727 23.2636 23.7727 22.3182V7.77273H26.6818V1.95455C26.6818 1.54242 26.8212 1.19697 27.1 0.918182C27.3788 0.639394 27.7242 0.5 28.1364 0.5C28.5485 0.5 28.8939 0.639394 29.1727 0.918182C29.4515 1.19697 29.5909 1.54242 29.5909 1.95455V7.77273H32.5V22.3182C32.5 23.2636 32.2273 24.1061 31.6818 24.8455C31.1364 25.5849 30.4394 26.1 29.5909 26.3909V32.5H26.6818ZM3.40909 10.6818V16.5H6.31818V10.6818H3.40909ZM15.0455 10.6818V16.5H17.9545V10.6818H15.0455ZM26.6818 10.6818V16.5H29.5909V10.6818H26.6818ZM4.86364 23.7727C5.27576 23.7727 5.62121 23.6333 5.9 23.3545C6.17879 23.0758 6.31818 22.7303 6.31818 22.3182V19.4091H3.40909V22.3182C3.40909 22.7303 3.54848 23.0758 3.82727 23.3545C4.10606 23.6333 4.45152 23.7727 4.86364 23.7727ZM16.5 23.7727C16.9121 23.7727 17.2576 23.6333 17.5364 23.3545C17.8152 23.0758 17.9545 22.7303 17.9545 22.3182V19.4091H15.0455V22.3182C15.0455 22.7303 15.1848 23.0758 15.4636 23.3545C15.7424 23.6333 16.0879 23.7727 16.5 23.7727ZM28.1364 23.7727C28.5485 23.7727 28.8939 23.6333 29.1727 23.3545C29.4515 23.0758 29.5909 22.7303 29.5909 22.3182V19.4091H26.6818V22.3182C26.6818 22.7303 26.8212 23.0758 27.1 23.3545C27.3788 23.6333 27.7242 23.7727 28.1364 23.7727Z" fill="white"/>
<path d="M3.40909 32.5V26.3909C2.56061 26.1 1.86364 25.5849 1.31818 24.8455C0.772727 24.1061 0.5 23.2636 0.5 22.3182V7.77273H3.40909V1.95455C3.40909 1.54242 3.54848 1.19697 3.82727 0.918182C4.10606 0.639394 4.45152 0.5 4.86364 0.5C5.27576 0.5 5.62121 0.639394 5.9 0.918182C6.17879 1.19697 6.31818 1.54242 6.31818 1.95455V7.77273H9.22727V22.3182C9.22727 23.2636 8.95455 24.1061 8.40909 24.8455C7.86364 25.5849 7.16667 26.1 6.31818 26.3909V32.5H3.40909V32.5M15.0455 32.5V26.3909C14.197 26.1 13.5 25.5849 12.9545 24.8455C12.4091 24.1061 12.1364 23.2636 12.1364 22.3182V7.77273H15.0455V1.95455C15.0455 1.54242 15.1848 1.19697 15.4636 0.918182C15.7424 0.639394 16.0879 0.5 16.5 0.5C16.9121 0.5 17.2576 0.639394 17.5364 0.918182C17.8152 1.19697 17.9545 1.54242 17.9545 1.95455V7.77273H20.8636V22.3182C20.8636 23.2636 20.5909 24.1061 20.0455 24.8455C19.5 25.5849 18.803 26.1 17.9545 26.3909V32.5H15.0455V32.5M26.6818 32.5V26.3909C25.8333 26.1 25.1364 25.5849 24.5909 24.8455C24.0455 24.1061 23.7727 23.2636 23.7727 22.3182V7.77273H26.6818V1.95455C26.6818 1.54242 26.8212 1.19697 27.1 0.918182C27.3788 0.639394 27.7242 0.5 28.1364 0.5C28.5485 0.5 28.8939 0.639394 29.1727 0.918182C29.4515 1.19697 29.5909 1.54242 29.5909 1.95455V7.77273H32.5V22.3182C32.5 23.2636 32.2273 24.1061 31.6818 24.8455C31.1364 25.5849 30.4394 26.1 29.5909 26.3909V32.5H26.6818V32.5M3.40909 10.6818V16.5H6.31818V10.6818H3.40909V10.6818M15.0455 10.6818V16.5H17.9545V10.6818H15.0455V10.6818M26.6818 10.6818V16.5H29.5909V10.6818H26.6818V10.6818M4.86364 23.7727C5.27576 23.7727 5.62121 23.6333 5.9 23.3545C6.17879 23.0758 6.31818 22.7303 6.31818 22.3182V19.4091H3.40909V22.3182C3.40909 22.7303 3.54848 23.0758 3.82727 23.3545C4.10606 23.6333 4.45152 23.7727 4.86364 23.7727V23.7727M16.5 23.7727C16.9121 23.7727 17.2576 23.6333 17.5364 23.3545C17.8152 23.0758 17.9545 22.7303 17.9545 22.3182V19.4091H15.0455V22.3182C15.0455 22.7303 15.1848 23.0758 15.4636 23.3545C15.7424 23.6333 16.0879 23.7727 16.5 23.7727V23.7727M28.1364 23.7727C28.5485 23.7727 28.8939 23.6333 29.1727 23.3545C29.4515 23.0758 29.5909 22.7303 29.5909 22.3182V19.4091H26.6818V22.3182C26.6818 22.7303 26.8212 23.0758 27.1 23.3545C27.3788 23.6333 27.7242 23.7727 28.1364 23.7727V23.7727M4.86364 17.9545V17.9545V17.9545V17.9545V17.9545V17.9545M16.5 17.9545V17.9545V17.9545V17.9545V17.9545V17.9545M28.1364 17.9545V17.9545V17.9545V17.9545V17.9545V17.9545" stroke="#3B96FF" stroke-linejoin="bevel"/>
</svg>
