<svg width="31" height="33" viewBox="0 0 31 33" fill="none" xmlns="http://www.w3.org/2000/svg">
<path d="M20.8636 29.5909V26.6818H26.6818V12.1364H6.31818V17.9545H3.40909V6.31818C3.40909 5.51818 3.69394 4.83333 4.26364 4.26364C4.83333 3.69394 5.51818 3.40909 6.31818 3.40909H7.77273V0.5H10.6818V3.40909H22.3182V0.5H25.2273V3.40909H26.6818C27.4818 3.40909 28.1667 3.69394 28.7364 4.26364C29.3061 4.83333 29.5909 5.51818 29.5909 6.31818V26.6818C29.5909 27.4818 29.3061 28.1667 28.7364 28.7364C28.1667 29.3061 27.4818 29.5909 26.6818 29.5909H20.8636ZM10.6818 32.5L8.64545 30.4636L12.3909 26.6818H0.5V23.7727H12.3909L8.64545 19.9909L10.6818 17.9545L17.9545 25.2273L10.6818 32.5ZM6.31818 9.22727H26.6818V6.31818H6.31818V9.22727ZM6.31818 9.22727V6.31818V9.22727Z" fill="white"/>
<path d="M20.8636 29.5909V26.6818H26.6818V26.6818V26.6818V12.1364H6.31818V17.9545H3.40909V6.31818C3.40909 5.51818 3.69394 4.83333 4.26364 4.26364C4.83333 3.69394 5.51818 3.40909 6.31818 3.40909H7.77273V0.5H10.6818V3.40909H22.3182V0.5H25.2273V3.40909H26.6818C27.4818 3.40909 28.1667 3.69394 28.7364 4.26364C29.3061 4.83333 29.5909 5.51818 29.5909 6.31818V26.6818C29.5909 27.4818 29.3061 28.1667 28.7364 28.7364C28.1667 29.3061 27.4818 29.5909 26.6818 29.5909H20.8636V29.5909M10.6818 32.5L8.64545 30.4636L12.3909 26.6818H0.5V23.7727H12.3909L8.64545 19.9909L10.6818 17.9545L17.9545 25.2273L10.6818 32.5V32.5M6.31818 9.22727H26.6818V6.31818V6.31818V6.31818H6.31818V6.31818V6.31818V9.22727V9.22727M6.31818 9.22727V6.31818V6.31818V6.31818V6.31818V6.31818V6.31818V9.22727V9.22727V9.22727" stroke="#3BA3FF" stroke-linejoin="bevel"/>
</svg>
