<svg width="33" height="33" viewBox="0 0 33 33" fill="none" xmlns="http://www.w3.org/2000/svg">
<path d="M16.5 32.5C12.0259 32.5 8.24074 31.8111 5.14444 30.4333C2.04815 29.0556 0.5 27.3741 0.5 25.3889V7.61111C0.5 5.65556 2.06296 3.98148 5.18889 2.58889C8.31482 1.1963 12.0852 0.5 16.5 0.5C20.9148 0.5 24.6852 1.1963 27.8111 2.58889C30.937 3.98148 32.5 5.65556 32.5 7.61111V25.3889C32.5 27.3741 30.9519 29.0556 27.8556 30.4333C24.7593 31.8111 20.9741 32.5 16.5 32.5ZM16.5 11.2111C19.137 11.2111 21.7889 10.8333 24.4556 10.0778C27.1222 9.32222 28.6185 8.51482 28.9444 7.65556C28.6185 6.7963 27.1296 5.98148 24.4778 5.21111C21.8259 4.44074 19.1667 4.05556 16.5 4.05556C13.8037 4.05556 11.1593 4.43333 8.56667 5.18889C5.97407 5.94444 4.47037 6.76667 4.05556 7.65556C4.47037 8.54445 5.97407 9.35926 8.56667 10.1C11.1593 10.8407 13.8037 11.2111 16.5 11.2111ZM16.5 20.0556C17.7444 20.0556 18.9444 19.9963 20.1 19.8778C21.2556 19.7593 22.3593 19.5889 23.4111 19.3667C24.463 19.1444 25.4556 18.8704 26.3889 18.5444C27.3222 18.2185 28.1741 17.8481 28.9444 17.4333V12.1C28.1741 12.5148 27.3222 12.8852 26.3889 13.2111C25.4556 13.537 24.463 13.8111 23.4111 14.0333C22.3593 14.2556 21.2556 14.4259 20.1 14.5444C18.9444 14.663 17.7444 14.7222 16.5 14.7222C15.2556 14.7222 14.0407 14.663 12.8556 14.5444C11.6704 14.4259 10.5519 14.2556 9.5 14.0333C8.44815 13.8111 7.46296 13.537 6.54444 13.2111C5.62593 12.8852 4.7963 12.5148 4.05556 12.1V17.4333C4.7963 17.8481 5.62593 18.2185 6.54444 18.5444C7.46296 18.8704 8.44815 19.1444 9.5 19.3667C10.5519 19.5889 11.6704 19.7593 12.8556 19.8778C14.0407 19.9963 15.2556 20.0556 16.5 20.0556ZM16.5 28.9444C17.863 28.9444 19.2481 28.8407 20.6556 28.6333C22.063 28.4259 23.3593 28.1519 24.5444 27.8111C25.7296 27.4704 26.7222 27.0852 27.5222 26.6556C28.3222 26.2259 28.7963 25.7889 28.9444 25.3444V20.9889C28.1741 21.4037 27.3222 21.7741 26.3889 22.1C25.4556 22.4259 24.463 22.7 23.4111 22.9222C22.3593 23.1444 21.2556 23.3148 20.1 23.4333C18.9444 23.5519 17.7444 23.6111 16.5 23.6111C15.2556 23.6111 14.0407 23.5519 12.8556 23.4333C11.6704 23.3148 10.5519 23.1444 9.5 22.9222C8.44815 22.7 7.46296 22.4259 6.54444 22.1C5.62593 21.7741 4.7963 21.4037 4.05556 20.9889V25.3889C4.2037 25.8333 4.67037 26.263 5.45556 26.6778C6.24074 27.0926 7.22593 27.4704 8.41111 27.8111C9.5963 28.1519 10.9 28.4259 12.3222 28.6333C13.7444 28.8407 15.137 28.9444 16.5 28.9444Z" fill="white"/>
<path d="M16.5 32.5C12.0259 32.5 8.24074 31.8111 5.14444 30.4333C2.04815 29.0556 0.5 27.3741 0.5 25.3889V7.61111C0.5 5.65556 2.06296 3.98148 5.18889 2.58889C8.31482 1.1963 12.0852 0.5 16.5 0.5C20.9148 0.5 24.6852 1.1963 27.8111 2.58889C30.937 3.98148 32.5 5.65556 32.5 7.61111V25.3889C32.5 27.3741 30.9519 29.0556 27.8556 30.4333C24.7593 31.8111 20.9741 32.5 16.5 32.5V32.5M16.5 11.2111C19.137 11.2111 21.7889 10.8333 24.4556 10.0778C27.1222 9.32222 28.6185 8.51482 28.9444 7.65556C28.6185 6.7963 27.1296 5.98148 24.4778 5.21111C21.8259 4.44074 19.1667 4.05556 16.5 4.05556C13.8037 4.05556 11.1593 4.43333 8.56667 5.18889C5.97407 5.94444 4.47037 6.76667 4.05556 7.65556C4.47037 8.54444 5.97407 9.35926 8.56667 10.1C11.1593 10.8407 13.8037 11.2111 16.5 11.2111V11.2111M16.5 20.0556C17.7444 20.0556 18.9444 19.9963 20.1 19.8778C21.2556 19.7593 22.3593 19.5889 23.4111 19.3667C24.463 19.1444 25.4556 18.8704 26.3889 18.5444C27.3222 18.2185 28.1741 17.8481 28.9444 17.4333V12.1C28.1741 12.5148 27.3222 12.8852 26.3889 13.2111C25.4556 13.537 24.463 13.8111 23.4111 14.0333C22.3593 14.2556 21.2556 14.4259 20.1 14.5444C18.9444 14.663 17.7444 14.7222 16.5 14.7222C15.2556 14.7222 14.0407 14.663 12.8556 14.5444C11.6704 14.4259 10.5519 14.2556 9.5 14.0333C8.44815 13.8111 7.46296 13.537 6.54444 13.2111C5.62593 12.8852 4.7963 12.5148 4.05556 12.1V17.4333C4.7963 17.8481 5.62593 18.2185 6.54444 18.5444C7.46296 18.8704 8.44815 19.1444 9.5 19.3667C10.5519 19.5889 11.6704 19.7593 12.8556 19.8778C14.0407 19.9963 15.2556 20.0556 16.5 20.0556V20.0556M16.5 28.9444C17.863 28.9444 19.2481 28.8407 20.6556 28.6333C22.063 28.4259 23.3593 28.1519 24.5444 27.8111C25.7296 27.4704 26.7222 27.0852 27.5222 26.6556C28.3222 26.2259 28.7963 25.7889 28.9444 25.3444V20.9889C28.1741 21.4037 27.3222 21.7741 26.3889 22.1C25.4556 22.4259 24.463 22.7 23.4111 22.9222C22.3593 23.1444 21.2556 23.3148 20.1 23.4333C18.9444 23.5519 17.7444 23.6111 16.5 23.6111C15.2556 23.6111 14.0407 23.5519 12.8556 23.4333C11.6704 23.3148 10.5519 23.1444 9.5 22.9222C8.44815 22.7 7.46296 22.4259 6.54444 22.1C5.62593 21.7741 4.7963 21.4037 4.05556 20.9889V25.3889C4.2037 25.8333 4.67037 26.263 5.45556 26.6778C6.24074 27.0926 7.22593 27.4704 8.41111 27.8111C9.5963 28.1519 10.9 28.4259 12.3222 28.6333C13.7444 28.8407 15.137 28.9444 16.5 28.9444V28.9444" stroke="#3B96FF" stroke-linejoin="bevel"/>
</svg>
