<svg xmlns="http://www.w3.org/2000/svg" xmlns:xlink="http://www.w3.org/1999/xlink" width="22" height="19" viewBox="0 0 22 19" fill="none"><path d="M0 19L11 0L22 19L0 19L0 19ZM11 16C11.2833 16 11.5208 15.9042 11.7125 15.7125C11.9042 15.5208 12 15.2833 12 15C12 14.7167 11.9042 14.4792 11.7125 14.2875C11.5208 14.0958 11.2833 14 11 14C10.7167 14 10.4792 14.0958 10.2875 14.2875C10.0958 14.4792 10 14.7167 10 15C10 15.2833 10.0958 15.5208 10.2875 15.7125C10.4792 15.9042 10.7167 16 11 16L11 16ZM10 13L12 13L12 8L10 8L10 13L10 13Z"  style="mix-blend-mode:normal" fill="#F59E0B" ></path></svg>