<svg xmlns="http://www.w3.org/2000/svg" xmlns:xlink="http://www.w3.org/1999/xlink" width="20" height="20" viewBox="0 0 20 20" fill="none"><path d="M5 11.5C5.41667 11.5 5.76833 11.3517 6.06 11.06C6.35167 10.7683 6.5 10.4167 6.5 10C6.5 9.58333 6.35167 9.23167 6.06 8.94C5.76833 8.64833 5.41667 8.5 5 8.5C4.58333 8.5 4.23167 8.64833 3.94 8.94C3.64833 9.23167 3.5 9.58333 3.5 10C3.5 10.4167 3.64833 10.7683 3.94 11.06C4.23167 11.3517 4.58333 11.5 5 11.5ZM10 11.5C10.4167 11.5 10.7683 11.3517 11.06 11.06C11.3517 10.7683 11.5 10.4167 11.5 10C11.5 9.58333 11.3517 9.23167 11.06 8.94C10.7683 8.64833 10.4167 8.5 10 8.5C9.58333 8.5 9.23167 8.64833 8.94 8.94C8.64833 9.23167 8.5 9.58333 8.5 10C8.5 10.4167 8.64833 10.7683 8.94 11.06C9.23167 11.3517 9.58333 11.5 10 11.5ZM15 11.5C15.4167 11.5 15.7683 11.3517 16.06 11.06C16.3517 10.7683 16.5 10.4167 16.5 10C16.5 9.58333 16.3517 9.23167 16.06 8.94C15.7683 8.64833 15.4167 8.5 15 8.5C14.5833 8.5 14.2317 8.64833 13.94 8.94C13.6483 9.23167 13.5 9.58333 13.5 10C13.5 10.4167 13.6483 10.7683 13.94 11.06C14.2317 11.3517 14.5833 11.5 15 11.5ZM10 20C8.61667 20 7.31667 19.735 6.1 19.21C4.88333 18.685 3.82 17.98 2.92 17.08C2.02 16.18 1.315 15.1167 0.79 13.9C0.265 12.6833 0 11.3833 0 10C0 8.61667 0.265 7.31667 0.79 6.1C1.315 4.88333 2.02 3.82 2.92 2.92C3.82 2.02 4.88333 1.315 6.1 0.79C7.31667 0.265 8.61667 0 10 0C11.3833 0 12.6833 0.265 13.9 0.79C15.1167 1.315 16.18 2.02 17.08 2.92C17.98 3.82 18.685 4.88333 19.21 6.1C19.735 7.31667 20 8.61667 20 10C20 11.3833 19.735 12.6833 19.21 13.9C18.685 15.1167 17.98 16.18 17.08 17.08C16.18 17.98 15.1167 18.685 13.9 19.21C12.6833 19.735 11.3833 20 10 20ZM10 18C12.2333 18 14.13 17.23 15.68 15.68C17.23 14.13 18 12.2333 18 10C18 7.76667 17.23 5.87 15.68 4.32C14.13 2.77 12.2333 2 10 2C7.76667 2 5.87 2.77 4.32 4.32C2.77 5.87 2 7.76667 2 10C2 12.2333 2.77 14.13 4.32 15.68C5.87 17.23 7.76667 18 10 18Z"  style="mix-blend-mode:normal" fill="#004BCA" ></path></svg>