<svg width="33" height="33" viewBox="0 0 33 33" fill="none" xmlns="http://www.w3.org/2000/svg">
<path d="M8.3 32.3C7.18889 32.3 6.24445 31.8942 5.46667 31.0826C4.68889 30.271 4.3 29.2855 4.3 28.1261C4.3 26.9667 4.68889 25.9811 5.46667 25.1696C6.24445 24.358 7.18889 23.9522 8.3 23.9522C8.61111 23.9522 8.9 23.9869 9.16667 24.0565C9.43334 24.1261 9.68889 24.2188 9.93334 24.3348L11.8333 21.8652C11.2111 21.1464 10.7778 20.3348 10.5333 19.4304C10.2889 18.5261 10.2333 17.6217 10.3667 16.7174L7.66667 15.7782C7.28889 16.358 6.81111 16.8217 6.23334 17.1696C5.65556 17.5174 5.01111 17.6913 4.3 17.6913C3.18889 17.6913 2.24445 17.2855 1.46667 16.4739C0.688892 15.6623 0.300003 14.6768 0.300003 13.5174C0.300003 12.358 0.688892 11.3725 1.46667 10.5609C2.24445 9.74926 3.18889 9.34347 4.3 9.34347C5.41111 9.34347 6.35556 9.74926 7.13334 10.5609C7.91111 11.3725 8.3 12.358 8.3 13.5174C8.3 13.5638 8.3 13.6101 8.3 13.6565C8.3 13.7029 8.3 13.7493 8.3 13.7956L11 14.7696C11.4444 13.9348 12.0389 13.2275 12.7833 12.6478C13.5278 12.0681 14.3667 11.6971 15.3 11.5348V8.50868C14.4333 8.25361 13.7167 7.76086 13.15 7.03042C12.5833 6.29999 12.3 5.44781 12.3 4.4739C12.3 3.31448 12.6889 2.32897 13.4667 1.51738C14.2444 0.705785 15.1889 0.299988 16.3 0.299988C17.4111 0.299988 18.3556 0.705785 19.1333 1.51738C19.9111 2.32897 20.3 3.31448 20.3 4.4739C20.3 5.44781 20.0111 6.29999 19.4333 7.03042C18.8556 7.76086 18.1444 8.25361 17.3 8.50868V11.5348C18.2333 11.6971 19.0722 12.0681 19.8167 12.6478C20.5611 13.2275 21.1556 13.9348 21.6 14.7696L24.3 13.7956C24.3 13.7493 24.3 13.7029 24.3 13.6565C24.3 13.6101 24.3 13.5638 24.3 13.5174C24.3 12.358 24.6889 11.3725 25.4667 10.5609C26.2444 9.74926 27.1889 9.34347 28.3 9.34347C29.4111 9.34347 30.3556 9.74926 31.1333 10.5609C31.9111 11.3725 32.3 12.358 32.3 13.5174C32.3 14.6768 31.9111 15.6623 31.1333 16.4739C30.3556 17.2855 29.4111 17.6913 28.3 17.6913C27.5889 17.6913 26.9389 17.5174 26.35 17.1696C25.7611 16.8217 25.2889 16.358 24.9333 15.7782L22.2333 16.7174C22.3667 17.6217 22.3111 18.5203 22.0667 19.413C21.8222 20.3058 21.3889 21.1232 20.7667 21.8652L22.6667 24.3C22.9111 24.184 23.1667 24.0971 23.4333 24.0391C23.7 23.9811 23.9889 23.9522 24.3 23.9522C25.4111 23.9522 26.3556 24.358 27.1333 25.1696C27.9111 25.9811 28.3 26.9667 28.3 28.1261C28.3 29.2855 27.9111 30.271 27.1333 31.0826C26.3556 31.8942 25.4111 32.3 24.3 32.3C23.1889 32.3 22.2444 31.8942 21.4667 31.0826C20.6889 30.271 20.3 29.2855 20.3 28.1261C20.3 27.6623 20.3722 27.2159 20.5167 26.7869C20.6611 26.358 20.8556 25.9696 21.1 25.6217L19.2 23.1522C18.2889 23.6855 17.3167 23.9522 16.2833 23.9522C15.25 23.9522 14.2778 23.6855 13.3667 23.1522L11.5 25.6217C11.7444 25.9696 11.9389 26.358 12.0833 26.7869C12.2278 27.2159 12.3 27.6623 12.3 28.1261C12.3 29.2855 11.9111 30.271 11.1333 31.0826C10.3556 31.8942 9.41111 32.3 8.3 32.3ZM4.3 14.9087C4.67778 14.9087 4.99445 14.7754 5.25 14.5087C5.50556 14.242 5.63334 13.9116 5.63334 13.5174C5.63334 13.1232 5.50556 12.7927 5.25 12.5261C4.99445 12.2594 4.67778 12.1261 4.3 12.1261C3.92223 12.1261 3.60556 12.2594 3.35 12.5261C3.09445 12.7927 2.96667 13.1232 2.96667 13.5174C2.96667 13.9116 3.09445 14.242 3.35 14.5087C3.60556 14.7754 3.92223 14.9087 4.3 14.9087ZM8.3 29.5174C8.67778 29.5174 8.99445 29.384 9.25 29.1174C9.50556 28.8507 9.63334 28.5203 9.63334 28.1261C9.63334 27.7319 9.50556 27.4014 9.25 27.1348C8.99445 26.8681 8.67778 26.7348 8.3 26.7348C7.92223 26.7348 7.60556 26.8681 7.35 27.1348C7.09445 27.4014 6.96667 27.7319 6.96667 28.1261C6.96667 28.5203 7.09445 28.8507 7.35 29.1174C7.60556 29.384 7.92223 29.5174 8.3 29.5174ZM16.3 5.86521C16.6778 5.86521 16.9944 5.73187 17.25 5.4652C17.5056 5.19854 17.6333 4.8681 17.6333 4.4739C17.6333 4.0797 17.5056 3.74926 17.25 3.4826C16.9944 3.21593 16.6778 3.0826 16.3 3.0826C15.9222 3.0826 15.6056 3.21593 15.35 3.4826C15.0944 3.74926 14.9667 4.0797 14.9667 4.4739C14.9667 4.8681 15.0944 5.19854 15.35 5.4652C15.6056 5.73187 15.9222 5.86521 16.3 5.86521ZM16.3 21.1696C17.2333 21.1696 18.0222 20.8333 18.6667 20.1609C19.3111 19.4884 19.6333 18.6652 19.6333 17.6913C19.6333 16.7174 19.3111 15.8942 18.6667 15.2217C18.0222 14.5493 17.2333 14.213 16.3 14.213C15.3667 14.213 14.5778 14.5493 13.9333 15.2217C13.2889 15.8942 12.9667 16.7174 12.9667 17.6913C12.9667 18.6652 13.2889 19.4884 13.9333 20.1609C14.5778 20.8333 15.3667 21.1696 16.3 21.1696ZM24.3 29.5174C24.6778 29.5174 24.9944 29.384 25.25 29.1174C25.5056 28.8507 25.6333 28.5203 25.6333 28.1261C25.6333 27.7319 25.5056 27.4014 25.25 27.1348C24.9944 26.8681 24.6778 26.7348 24.3 26.7348C23.9222 26.7348 23.6056 26.8681 23.35 27.1348C23.0944 27.4014 22.9667 27.7319 22.9667 28.1261C22.9667 28.5203 23.0944 28.8507 23.35 29.1174C23.6056 29.384 23.9222 29.5174 24.3 29.5174ZM28.3 14.9087C28.6778 14.9087 28.9944 14.7754 29.25 14.5087C29.5056 14.242 29.6333 13.9116 29.6333 13.5174C29.6333 13.1232 29.5056 12.7927 29.25 12.5261C28.9944 12.2594 28.6778 12.1261 28.3 12.1261C27.9222 12.1261 27.6056 12.2594 27.35 12.5261C27.0944 12.7927 26.9667 13.1232 26.9667 13.5174C26.9667 13.9116 27.0944 14.242 27.35 14.5087C27.6056 14.7754 27.9222 14.9087 28.3 14.9087Z" fill="white"/>
<path d="M8.3 32.3C7.18889 32.3 6.24445 31.8942 5.46667 31.0826C4.68889 30.271 4.3 29.2855 4.3 28.1261C4.3 26.9667 4.68889 25.9811 5.46667 25.1696C6.24445 24.358 7.18889 23.9522 8.3 23.9522C8.61111 23.9522 8.9 23.9869 9.16667 24.0565C9.43334 24.1261 9.68889 24.2188 9.93334 24.3348L11.8333 21.8652C11.2111 21.1464 10.7778 20.3348 10.5333 19.4304C10.2889 18.5261 10.2333 17.6217 10.3667 16.7174L7.66667 15.7782C7.28889 16.358 6.81111 16.8217 6.23334 17.1696C5.65556 17.5174 5.01111 17.6913 4.3 17.6913C3.18889 17.6913 2.24445 17.2855 1.46667 16.4739C0.688892 15.6623 0.300003 14.6768 0.300003 13.5174C0.300003 12.358 0.688892 11.3725 1.46667 10.5609C2.24445 9.74926 3.18889 9.34347 4.3 9.34347C5.41111 9.34347 6.35556 9.74926 7.13334 10.5609C7.91111 11.3725 8.3 12.358 8.3 13.5174C8.3 13.5638 8.3 13.6101 8.3 13.6565C8.3 13.7029 8.3 13.7493 8.3 13.7956L11 14.7696C11.4444 13.9348 12.0389 13.2275 12.7833 12.6478C13.5278 12.0681 14.3667 11.6971 15.3 11.5348V8.50868C14.4333 8.25361 13.7167 7.76086 13.15 7.03042C12.5833 6.29999 12.3 5.44781 12.3 4.4739C12.3 3.31448 12.6889 2.32897 13.4667 1.51738C14.2444 0.705785 15.1889 0.299988 16.3 0.299988C17.4111 0.299988 18.3556 0.705785 19.1333 1.51738C19.9111 2.32897 20.3 3.31448 20.3 4.4739C20.3 5.44781 20.0111 6.29999 19.4333 7.03042C18.8556 7.76086 18.1444 8.25361 17.3 8.50868V11.5348C18.2333 11.6971 19.0722 12.0681 19.8167 12.6478C20.5611 13.2275 21.1556 13.9348 21.6 14.7696L24.3 13.7956C24.3 13.7493 24.3 13.7029 24.3 13.6565C24.3 13.6101 24.3 13.5638 24.3 13.5174C24.3 12.358 24.6889 11.3725 25.4667 10.5609C26.2444 9.74926 27.1889 9.34347 28.3 9.34347C29.4111 9.34347 30.3556 9.74926 31.1333 10.5609C31.9111 11.3725 32.3 12.358 32.3 13.5174C32.3 14.6768 31.9111 15.6623 31.1333 16.4739C30.3556 17.2855 29.4111 17.6913 28.3 17.6913C27.5889 17.6913 26.9389 17.5174 26.35 17.1696C25.7611 16.8217 25.2889 16.358 24.9333 15.7782L22.2333 16.7174C22.3667 17.6217 22.3111 18.5203 22.0667 19.413C21.8222 20.3058 21.3889 21.1232 20.7667 21.8652L22.6667 24.3C22.9111 24.184 23.1667 24.0971 23.4333 24.0391C23.7 23.9811 23.9889 23.9522 24.3 23.9522C25.4111 23.9522 26.3556 24.358 27.1333 25.1696C27.9111 25.9811 28.3 26.9667 28.3 28.1261C28.3 29.2855 27.9111 30.271 27.1333 31.0826C26.3556 31.8942 25.4111 32.3 24.3 32.3C23.1889 32.3 22.2444 31.8942 21.4667 31.0826C20.6889 30.271 20.3 29.2855 20.3 28.1261C20.3 27.6623 20.3722 27.2159 20.5167 26.7869C20.6611 26.358 20.8556 25.9696 21.1 25.6217L19.2 23.1522C18.2889 23.6855 17.3167 23.9522 16.2833 23.9522C15.25 23.9522 14.2778 23.6855 13.3667 23.1522L11.5 25.6217C11.7444 25.9696 11.9389 26.358 12.0833 26.7869C12.2278 27.2159 12.3 27.6623 12.3 28.1261C12.3 29.2855 11.9111 30.271 11.1333 31.0826C10.3556 31.8942 9.41111 32.3 8.3 32.3V32.3M4.3 14.9087C4.67778 14.9087 4.99445 14.7754 5.25 14.5087C5.50556 14.242 5.63334 13.9116 5.63334 13.5174C5.63334 13.1232 5.50556 12.7927 5.25 12.5261C4.99445 12.2594 4.67778 12.1261 4.3 12.1261C3.92223 12.1261 3.60556 12.2594 3.35 12.5261C3.09445 12.7927 2.96667 13.1232 2.96667 13.5174C2.96667 13.9116 3.09445 14.242 3.35 14.5087C3.60556 14.7754 3.92223 14.9087 4.3 14.9087V14.9087M8.3 29.5174C8.67778 29.5174 8.99445 29.384 9.25 29.1174C9.50556 28.8507 9.63334 28.5203 9.63334 28.1261C9.63334 27.7319 9.50556 27.4014 9.25 27.1348C8.99445 26.8681 8.67778 26.7348 8.3 26.7348C7.92223 26.7348 7.60556 26.8681 7.35 27.1348C7.09445 27.4014 6.96667 27.7319 6.96667 28.1261C6.96667 28.5203 7.09445 28.8507 7.35 29.1174C7.60556 29.384 7.92223 29.5174 8.3 29.5174V29.5174M16.3 5.86521C16.6778 5.86521 16.9944 5.73187 17.25 5.4652C17.5056 5.19854 17.6333 4.8681 17.6333 4.4739C17.6333 4.0797 17.5056 3.74926 17.25 3.4826C16.9944 3.21593 16.6778 3.0826 16.3 3.0826C15.9222 3.0826 15.6056 3.21593 15.35 3.4826C15.0944 3.74926 14.9667 4.0797 14.9667 4.4739C14.9667 4.8681 15.0944 5.19854 15.35 5.4652C15.6056 5.73187 15.9222 5.86521 16.3 5.86521V5.86521M16.3 21.1696C17.2333 21.1696 18.0222 20.8333 18.6667 20.1609C19.3111 19.4884 19.6333 18.6652 19.6333 17.6913C19.6333 16.7174 19.3111 15.8942 18.6667 15.2217C18.0222 14.5493 17.2333 14.213 16.3 14.213C15.3667 14.213 14.5778 14.5493 13.9333 15.2217C13.2889 15.8942 12.9667 16.7174 12.9667 17.6913C12.9667 18.6652 13.2889 19.4884 13.9333 20.1609C14.5778 20.8333 15.3667 21.1696 16.3 21.1696V21.1696M24.3 29.5174C24.6778 29.5174 24.9944 29.384 25.25 29.1174C25.5056 28.8507 25.6333 28.5203 25.6333 28.1261C25.6333 27.7319 25.5056 27.4014 25.25 27.1348C24.9944 26.8681 24.6778 26.7348 24.3 26.7348C23.9222 26.7348 23.6056 26.8681 23.35 27.1348C23.0944 27.4014 22.9667 27.7319 22.9667 28.1261C22.9667 28.5203 23.0944 28.8507 23.35 29.1174C23.6056 29.384 23.9222 29.5174 24.3 29.5174V29.5174M28.3 14.9087C28.6778 14.9087 28.9944 14.7754 29.25 14.5087C29.5056 14.242 29.6333 13.9116 29.6333 13.5174C29.6333 13.1232 29.5056 12.7927 29.25 12.5261C28.9944 12.2594 28.6778 12.1261 28.3 12.1261C27.9222 12.1261 27.6056 12.2594 27.35 12.5261C27.0944 12.7927 26.9667 13.1232 26.9667 13.5174C26.9667 13.9116 27.0944 14.242 27.35 14.5087C27.6056 14.7754 27.9222 14.9087 28.3 14.9087V14.9087M16.3 4.4739V4.4739V4.4739V4.4739V4.4739V4.4739V4.4739V4.4739V4.4739V4.4739M4.3 13.5174V13.5174V13.5174V13.5174V13.5174V13.5174V13.5174V13.5174V13.5174V13.5174M16.3 17.6913V17.6913V17.6913V17.6913V17.6913V17.6913V17.6913V17.6913V17.6913V17.6913M28.3 13.5174V13.5174V13.5174V13.5174V13.5174V13.5174V13.5174V13.5174V13.5174V13.5174M8.3 28.1261V28.1261V28.1261V28.1261V28.1261V28.1261V28.1261V28.1261V28.1261V28.1261M24.3 28.1261V28.1261V28.1261V28.1261V28.1261V28.1261V28.1261V28.1261V28.1261V28.1261" stroke="#3B96FF" stroke-width="0.6" stroke-linejoin="bevel"/>
</svg>
