<svg xmlns="http://www.w3.org/2000/svg" xmlns:xlink="http://www.w3.org/1999/xlink" width="20" height="20" viewBox="0 0 20 20" fill="none"><path d="M6.99999 14L8.99999 14L8.99999 6L6.99999 6L6.99999 14L6.99999 14ZM11 14L13 14L13 6L11 6L11 14L11 14ZM9.99999 20C8.61666 20 7.31666 19.7375 6.09999 19.2125C4.88333 18.6875 3.82499 17.975 2.92499 17.075C2.02499 16.175 1.31249 15.1167 0.787492 13.9C0.262492 12.6833 -7.62939e-06 11.3833 -7.62939e-06 10C-7.62939e-06 8.61667 0.262492 7.31667 0.787492 6.1C1.31249 4.88333 2.02499 3.825 2.92499 2.925C3.82499 2.025 4.88333 1.3125 6.09999 0.7875C7.31666 0.2625 8.61666 0 9.99999 0C11.3833 0 12.6833 0.2625 13.9 0.7875C15.1167 1.3125 16.175 2.025 17.075 2.925C17.975 3.825 18.6875 4.88333 19.2125 6.1C19.7375 7.31667 20 8.61667 20 10C20 11.3833 19.7375 12.6833 19.2125 13.9C18.6875 15.1167 17.975 16.175 17.075 17.075C16.175 17.975 15.1167 18.6875 13.9 19.2125C12.6833 19.7375 11.3833 20 9.99999 20L9.99999 20ZM9.99999 18C12.2333 18 14.125 17.225 15.675 15.675C17.225 14.125 18 12.2333 18 10C18 7.76667 17.225 5.875 15.675 4.325C14.125 2.775 12.2333 2 9.99999 2C7.76666 2 5.87499 2.775 4.32499 4.325C2.77499 5.875 1.99999 7.76667 1.99999 10C1.99999 12.2333 2.77499 14.125 4.32499 15.675C5.87499 17.225 7.76666 18 9.99999 18L9.99999 18ZM9.99999 10L9.99999 10L9.99999 10L9.99999 10L9.99999 10L9.99999 10L9.99999 10L9.99999 10L9.99999 10L9.99999 10Z"  style="mix-blend-mode:normal" fill="#424656" ></path></svg>